<mxfile host="app.diagrams.net" modified="2023-07-26T11:52:01.813Z" agent="Mozilla/5.0 (Windows NT 10.0; Win64; x64) AppleWebKit/537.36 (KHTML, like Gecko) Chrome/115.0.0.0 Safari/537.36 Edg/115.0.1901.183" etag="yQff2XKhf6csG6aDAQZZ" version="21.6.5" type="github">
  <diagram name="Page-1" id="F8U493MTITLsfvQEDwbk">
    <mxGraphModel dx="978" dy="507" grid="1" gridSize="10" guides="1" tooltips="1" connect="1" arrows="1" fold="1" page="1" pageScale="1" pageWidth="827" pageHeight="1169" math="0" shadow="0">
      <root>
        <mxCell id="0" />
        <mxCell id="1" parent="0" />
        <mxCell id="h9uJYR5GoaS3UvCaUmBw-3" value="Submit users for migration" style="rounded=0;whiteSpace=wrap;html=1;" vertex="1" parent="1">
          <mxGeometry x="40" y="80" width="120" height="60" as="geometry" />
        </mxCell>
        <mxCell id="h9uJYR5GoaS3UvCaUmBw-4" value="Stage 00" style="shape=process;whiteSpace=wrap;html=1;backgroundOutline=1;" vertex="1" parent="1">
          <mxGeometry x="330" y="80" width="120" height="60" as="geometry" />
        </mxCell>
        <mxCell id="h9uJYR5GoaS3UvCaUmBw-5" value="Stage 10" style="shape=process;whiteSpace=wrap;html=1;backgroundOutline=1;" vertex="1" parent="1">
          <mxGeometry x="330" y="240" width="120" height="60" as="geometry" />
        </mxCell>
        <mxCell id="h9uJYR5GoaS3UvCaUmBw-6" value="Stage 30" style="shape=process;whiteSpace=wrap;html=1;backgroundOutline=1;" vertex="1" parent="1">
          <mxGeometry x="330" y="585" width="120" height="60" as="geometry" />
        </mxCell>
        <mxCell id="h9uJYR5GoaS3UvCaUmBw-7" value="Stage 20" style="shape=process;whiteSpace=wrap;html=1;backgroundOutline=1;" vertex="1" parent="1">
          <mxGeometry x="330" y="410" width="120" height="60" as="geometry" />
        </mxCell>
        <mxCell id="h9uJYR5GoaS3UvCaUmBw-8" value="" style="endArrow=classic;html=1;rounded=0;exitX=1;exitY=0.5;exitDx=0;exitDy=0;entryX=0;entryY=0.5;entryDx=0;entryDy=0;" edge="1" parent="1" source="h9uJYR5GoaS3UvCaUmBw-3" target="h9uJYR5GoaS3UvCaUmBw-4">
          <mxGeometry width="50" height="50" relative="1" as="geometry">
            <mxPoint x="390" y="130" as="sourcePoint" />
            <mxPoint x="440" y="80" as="targetPoint" />
          </mxGeometry>
        </mxCell>
        <mxCell id="h9uJYR5GoaS3UvCaUmBw-9" value="" style="endArrow=none;dashed=1;html=1;dashPattern=1 3;strokeWidth=2;rounded=0;exitX=1;exitY=0.5;exitDx=0;exitDy=0;" edge="1" parent="1" source="h9uJYR5GoaS3UvCaUmBw-4" target="h9uJYR5GoaS3UvCaUmBw-10">
          <mxGeometry width="50" height="50" relative="1" as="geometry">
            <mxPoint x="500" y="140" as="sourcePoint" />
            <mxPoint x="440" y="80" as="targetPoint" />
          </mxGeometry>
        </mxCell>
        <mxCell id="h9uJYR5GoaS3UvCaUmBw-10" value="Check user exists&lt;br&gt;Create OneDrive" style="shape=card;whiteSpace=wrap;html=1;" vertex="1" parent="1">
          <mxGeometry x="610" y="80" width="80" height="100" as="geometry" />
        </mxCell>
        <mxCell id="h9uJYR5GoaS3UvCaUmBw-11" value="Subit for migration" style="shape=card;whiteSpace=wrap;html=1;" vertex="1" parent="1">
          <mxGeometry x="610" y="410" width="80" height="100" as="geometry" />
        </mxCell>
        <mxCell id="h9uJYR5GoaS3UvCaUmBw-12" value="Submit for scan" style="shape=card;whiteSpace=wrap;html=1;" vertex="1" parent="1">
          <mxGeometry x="610" y="240" width="80" height="100" as="geometry" />
        </mxCell>
        <mxCell id="h9uJYR5GoaS3UvCaUmBw-13" value="Scan failure reports" style="shape=document;whiteSpace=wrap;html=1;boundedLbl=1;" vertex="1" parent="1">
          <mxGeometry x="100" y="310" width="120" height="80" as="geometry" />
        </mxCell>
        <mxCell id="h9uJYR5GoaS3UvCaUmBw-14" value="Migration failure reports" style="shape=document;whiteSpace=wrap;html=1;boundedLbl=1;" vertex="1" parent="1">
          <mxGeometry x="100" y="470" width="120" height="80" as="geometry" />
        </mxCell>
      </root>
    </mxGraphModel>
  </diagram>
</mxfile>
